<?xml version="1.0" standalone="no"?>
<!DOCTYPE svg PUBLIC "-//W3C//DTD SVG 20010904//EN"
 "http://www.w3.org/TR/2001/REC-SVG-20010904/DTD/svg10.dtd">
<svg version="1.0" xmlns="http://www.w3.org/2000/svg"
 width="516.000000pt" height="154.000000pt" viewBox="0 0 516.000000 154.000000"
 preserveAspectRatio="xMidYMid meet">

<g transform="translate(0.000000,154.000000) scale(0.100000,-0.100000)"
fill="#000000" stroke="none">
<path d="M85 1134 c37 -77 87 -183 112 -236 25 -54 49 -98 53 -98 4 0 34 59
66 131 32 71 60 132 63 134 3 1 34 -56 68 -128 34 -72 65 -133 70 -134 5 -2
17 16 28 39 14 34 107 240 181 403 6 13 11 -49 14 -180 3 -110 9 -208 14 -217
10 -21 67 -58 90 -58 14 0 16 16 17 123 4 265 -5 307 -74 340 -21 11 -44 16
-53 13 -8 -3 -34 -48 -59 -101 -34 -74 -50 -97 -71 -105 -49 -19 -78 3 -122
88 -46 90 -73 113 -141 120 l-51 5 40 -89 c23 -48 38 -94 36 -101 -10 -25 -52
-37 -85 -23 -22 9 -39 31 -68 88 -45 89 -73 113 -142 120 l-51 5 65 -139z"/>
<path d="M1479 1249 c26 -67 210 -444 218 -446 4 -2 35 58 68 132 33 74 62
135 65 135 3 -1 34 -64 69 -141 l65 -141 19 39 c11 21 48 101 83 178 34 77 75
167 90 200 l29 60 5 -206 c5 -222 6 -226 63 -255 52 -27 57 -17 56 110 -1 97
2 121 18 148 15 26 26 33 49 33 l29 0 6 -110 c5 -119 13 -143 58 -174 60 -43
63 -37 59 124 -3 143 -3 145 -31 172 -23 23 -36 28 -78 28 -46 0 -54 -3 -83
-36 l-31 -36 -2 63 c-1 47 -7 71 -22 93 -22 30 -82 58 -101 46 -6 -4 -30 -45
-53 -92 -77 -156 -123 -161 -197 -22 -35 65 -53 88 -80 101 -32 16 -110 25
-110 13 0 -3 18 -41 40 -85 22 -44 40 -84 40 -90 0 -6 -15 -17 -33 -26 -54
-26 -80 -8 -127 85 -45 91 -70 112 -141 119 -49 5 -49 4 -40 -19z"/>
<path d="M3140 1264 c0 -10 209 -456 219 -466 4 -5 34 53 66 128 33 75 62 137
66 140 3 2 34 -57 69 -131 35 -74 66 -135 70 -135 8 0 148 301 186 398 13 35
20 61 15 58 -5 -3 -23 -42 -41 -86 -36 -91 -69 -125 -110 -115 -35 9 -48 24
-89 102 -20 36 -48 75 -62 86 -31 22 -119 36 -119 18 0 -6 16 -44 37 -85 39
-78 39 -99 -1 -117 -41 -19 -76 7 -117 84 -50 95 -76 119 -138 125 -28 2 -51
1 -51 -4z"/>
<path d="M3852 1064 l3 -206 37 -34 c21 -19 46 -34 57 -34 18 0 19 10 23 128
4 137 14 168 56 179 13 3 28 1 34 -5 5 -5 12 -56 15 -113 6 -116 19 -151 64
-175 57 -29 61 -19 57 124 -4 152 -17 185 -77 203 -51 15 -87 5 -123 -33 l-28
-30 0 53 c0 66 -15 96 -59 126 -64 43 -63 45 -59 -183z"/>
<path d="M2927 1224 c-4 -4 -7 -24 -7 -45 0 -31 -4 -38 -22 -42 l-23 -4 23 -2
c21 -1 22 -4 22 -103 1 -136 11 -187 45 -215 31 -27 82 -30 124 -8 33 16 66
79 55 103 -5 13 -9 9 -14 -17 -11 -47 -45 -79 -68 -65 -15 10 -17 31 -20 157
l-3 146 53 4 53 3 -52 2 c-39 1 -53 6 -53 16 0 39 -89 94 -113 70z"/>
<path d="M1214 1127 c-80 -39 -124 -114 -110 -189 8 -43 64 -110 110 -132 104
-49 241 29 253 146 9 86 -71 180 -162 193 -30 4 -53 0 -91 -18z m108 -28 c33
-63 20 -278 -16 -292 -52 -20 -76 29 -76 158 0 92 13 150 38 164 25 15 35 9
54 -30z"/>
<path d="M2665 1138 c-31 -11 -88 -58 -80 -66 2 -2 18 7 35 22 17 14 37 26 43
26 7 0 22 3 34 6 36 10 63 -27 63 -86 0 -42 -3 -50 -18 -50 -37 0 -137 -41
-164 -67 -34 -32 -36 -70 -7 -107 41 -52 147 -26 182 45 11 23 17 28 17 15 0
-24 65 -86 91 -86 18 0 19 8 19 129 0 117 -2 131 -23 162 -12 19 -34 40 -49
47 -38 18 -108 23 -143 10z m92 -210 c-8 -62 -37 -99 -65 -82 -38 24 -19 104
31 124 37 15 40 12 34 -42z"/>
<path d="M4348 1140 c-87 -27 -130 -86 -132 -176 -1 -95 70 -163 180 -172 53
-4 68 -1 99 18 34 21 74 85 61 97 -3 3 -12 -11 -20 -31 -29 -70 -124 -85 -167
-26 -10 14 -21 44 -25 68 l-7 42 84 0 c116 0 129 5 129 45 0 36 -32 89 -70
116 -30 22 -95 31 -132 19z m79 -39 c4 -14 7 -48 7 -76 l1 -50 -47 -3 -48 -3
0 38 c0 21 5 55 10 75 17 61 63 72 77 19z"/>
<path d="M4944 1140 c-43 -10 -91 -46 -109 -81 -62 -118 12 -254 145 -267 65
-6 93 2 135 39 27 24 35 38 34 63 l-1 31 -7 -31 c-11 -42 -18 -52 -53 -70 -66
-34 -136 9 -145 90 l-6 46 84 0 c124 0 132 4 126 53 -7 53 -33 87 -87 115 -46
23 -64 25 -116 12z m88 -90 c4 -34 5 -66 2 -71 -6 -10 -54 -12 -78 -3 -31 12
-15 124 21 152 26 19 45 -7 55 -78z"/>
<path d="M924 1131 c-22 -10 -54 -48 -54 -65 0 -5 9 0 20 12 23 24 58 29 66 9
2 -7 8 -63 13 -125 6 -84 12 -117 25 -131 20 -22 74 -47 83 -38 9 9 11 218 2
256 -4 19 -18 45 -32 58 -26 27 -88 39 -123 24z"/>
<path d="M4760 1127 c-13 -7 -34 -26 -46 -44 l-21 -31 -17 30 c-18 30 -51 48
-87 48 -19 0 -20 -5 -15 -135 3 -74 10 -143 15 -153 13 -25 55 -52 79 -52 17
0 20 12 26 121 4 74 12 132 21 150 17 32 52 59 77 59 9 0 20 5 23 10 9 14 -25
12 -55 -3z"/>
<path d="M1714 457 c-3 -8 -4 -49 -2 -93 3 -75 4 -79 27 -82 23 -4 24 -2 17
37 -8 52 3 52 32 1 17 -30 29 -40 47 -40 14 0 25 2 25 5 0 2 -14 25 -32 49
l-31 45 26 35 c32 41 34 56 8 56 -13 0 -29 -16 -45 -42 -22 -36 -26 -39 -27
-20 -1 12 -3 27 -4 32 -1 6 -3 15 -4 20 -2 15 -31 12 -37 -3z"/>
<path d="M2180 375 c0 -88 1 -95 20 -95 17 0 20 7 20 50 0 28 3 50 6 50 3 0
28 -25 56 -56 30 -32 55 -51 60 -46 5 5 8 49 6 98 -2 71 -6 89 -18 89 -11 0
-16 -13 -18 -47 -2 -27 -7 -48 -11 -48 -4 0 -27 23 -50 50 -63 74 -71 69 -71
-45z"/>
<path d="M2450 460 c0 -6 11 -33 25 -60 14 -27 25 -66 25 -85 0 -32 3 -36 22
-33 18 2 23 10 24 38 0 19 13 58 27 87 32 63 32 63 7 63 -12 0 -26 -13 -39
-37 l-19 -38 -16 38 c-11 25 -23 37 -36 37 -11 0 -20 -5 -20 -10z"/>
<path d="M2750 450 c-15 -29 -60 -148 -60 -160 0 -16 40 -11 46 5 8 20 61 19
72 -1 5 -9 18 -14 29 -12 19 3 19 7 -16 92 -20 49 -41 91 -48 93 -6 3 -17 -5
-23 -17z m26 -97 c-11 -11 -19 6 -11 24 8 17 8 17 12 0 3 -10 2 -21 -1 -24z"/>
<path d="M1960 369 l0 -90 53 3 c38 2 52 7 52 18 0 10 -12 16 -33 18 -25 3
-32 8 -30 20 2 9 13 18 26 20 27 4 29 32 2 32 -13 0 -20 7 -20 20 0 16 7 20
30 20 20 0 30 5 30 15 0 12 -13 15 -55 15 l-55 0 0 -91z"/>
</g>
</svg>
